<svg xmlns="http://www.w3.org/2000/svg" width="64" height="64" viewBox="0 0 64 64" fill="none">
  <!-- ReelSpy unified brand mark (premium): spy viewfinder locked on a play
       button over a volt-yellow gradient tile. Keep in sync with
       components/brand/Logo.tsx and public/brand/*.png — same geometry and
       fixed brand colors everywhere. -->
  <defs>
    <linearGradient id="rsBg" x1="0" y1="0" x2="0" y2="64" gradientUnits="userSpaceOnUse">
      <stop offset="0" stop-color="#FFEE55"/>
      <stop offset="0.55" stop-color="#F9E400"/>
      <stop offset="1" stop-color="#EBCB00"/>
    </linearGradient>
    <linearGradient id="rsSheen" x1="0" y1="0" x2="0" y2="30" gradientUnits="userSpaceOnUse">
      <stop offset="0" stop-color="#FFFFFF" stop-opacity="0.5"/>
      <stop offset="1" stop-color="#FFFFFF" stop-opacity="0"/>
    </linearGradient>
  </defs>
  <rect width="64" height="64" rx="14" fill="url(#rsBg)"/>
  <rect x="1" y="1" width="62" height="62" rx="13" fill="url(#rsSheen)" opacity="0.55"/>
  <rect x="0.5" y="0.5" width="63" height="63" rx="13.5" stroke="#121212" stroke-opacity="0.12"/>
  <g stroke="#121212" stroke-width="5" stroke-linecap="round" fill="none">
    <path d="M13 23v-4a6 6 0 0 1 6-6h4"/>
    <path d="M41 13h4a6 6 0 0 1 6 6v4"/>
    <path d="M51 41v4a6 6 0 0 1-6 6h-4"/>
    <path d="M23 51h-4a6 6 0 0 1-6-6v-4"/>
  </g>
  <path d="M27 23.5 L43.5 32 L27 40.5 Z" fill="#121212" stroke="#121212" stroke-width="3.5" stroke-linejoin="round"/>
</svg>
